<svg xmlns="http://www.w3.org/2000/svg" width="32" height="32"><path fill="#f9a03c" d="M17.749 16C17.749 7.624 10.96.833 2.582.833H-.001V7.5h2.584c4.695 0 8.5 3.805 8.5 8.5s-3.805 8.5-8.5 8.5H-.001v6.667h2.584c8.375 0 15.165-6.791 15.165-15.167zM32 10.084A9.252 9.252 0 0 0 22.749.833H12.082a18.02 18.02 0 0 1 6.201 6.574l.047.093h4.419c1.425 0 2.584 1.157 2.584 2.584s-1.159 2.584-2.584 2.584h-2.584a17.922 17.922 0 0 1 0 6.667h2.584a2.585 2.585 0 0 1 0 5.168H18.33c-1.505 2.754-3.621 5.003-6.175 6.623l-.073.043h10.667a9.251 9.251 0 0 0 7.11-15.167 9.212 9.212 0 0 0 2.14-5.919z"/></svg>