<svg xmlns="http://www.w3.org/2000/svg" width="32" height="32"><path fill="#639" d="M16.001.009C7.101.009.009 7.101.009 16S7.101 31.993 16 31.993s15.992-7.092 15.992-15.992S24.901.009 16.001.009zM3.485 16.14l12.377 12.377c-6.815 0-12.377-5.563-12.377-12.377zm15.298 12.099L3.764 13.22C5.013 7.657 10.021 3.485 16 3.485a12.615 12.615 0 0 1 10.128 5.113l.024.034-1.807 1.528c-1.864-2.702-4.943-4.449-8.429-4.449h-.056.003-.065c-4.396 0-8.135 2.816-9.51 6.743l-.022.071 13.072 13.073c3.2-1.113 5.701-3.893 6.397-7.232h-5.424v-2.364h8.205c0 5.98-4.172 10.987-9.735 12.237z"/></svg>