<svg xmlns="http://www.w3.org/2000/svg" width="32" height="32"><path d="M23.751 30.003c-.119.063-.112.088.007.028a.305.305 0 0 0 .093-.063c0-.021-.003-.019-.1.035zm.237-.126c-.056.044-.056.047.012.012.037-.019.069-.04.069-.047 0-.025-.016-.019-.081.035zm.156-.094c-.056.044-.056.047.012.012.037-.019.069-.04.069-.047 0-.025-.016-.019-.081.035zm.156-.094c-.056.044-.056.047.012.012.037-.019.069-.04.069-.047 0-.025-.016-.019-.081.035zm.216-.14c-.109.069-.144.116-.047.063.069-.04.181-.125.163-.128a.613.613 0 0 0-.118.067l.002-.001zM14.952.008a29.2 29.2 0 0 1-.485.044C9.923.461 5.666 2.913 2.97 6.683a15.674 15.674 0 0 0-2.813 6.904l-.011.087c-.128.879-.144 1.139-.144 2.331s.016 1.451.144 2.331c.869 6.008 5.145 11.056 10.944 12.927a16.86 16.86 0 0 0 3.377.7c.485.053 2.58.053 3.065 0 2.148-.237 3.969-.769 5.764-1.685.275-.141.328-.179.291-.209-.312-.379-1.167-1.516-2.015-2.659l-.591-.834-2.559-3.456-3.205-4.744a258.747 258.747 0 0 0-4.18-6.183l.952 1.441c-.012-.003-.025 2.105-.031 4.679-.009 4.507-.012 4.688-.069 4.795a.579.579 0 0 1-.271.283l-.003.001c-.1.051-.188.06-.66.06h-.541l-.144-.091a.598.598 0 0 1-.208-.225l-.002-.003-.065-.141.007-6.271.009-6.273.097-.121a.84.84 0 0 1 .228-.188l.004-.002c.128-.063.179-.069.72-.069.639 0 .744.025.911.207-.11-.286 1.162 1.609 2.423 3.511l1.437 2.303c2.077 3.149 4.916 7.449 6.312 9.561l2.533 3.837.128-.084a16.563 16.563 0 0 0 3.27-2.865l.016-.019a15.84 15.84 0 0 0 3.755-8.091l.011-.088c.128-.879.144-1.139.144-2.331s-.016-1.451-.144-2.331C30.987 7.67 26.711 2.622 20.912.751A16.024 16.024 0 0 0 17.655.06l-.074-.006c-.3-.031-2.368-.065-2.629-.044zm6.549 9.677a.63.63 0 0 1 .315.365l.001.004c.025.081.031 1.82.025 5.739l-.009 5.624-.992-1.52-.995-1.52v-4.088c0-2.643.012-4.128.031-4.2a.65.65 0 0 1 .306-.393l.003-.002c.128-.065.175-.072.667-.072.463 0 .544.007.648.063z"/></svg>